<svg width="22" height="22" viewBox="0 0 22 22" fill="none" xmlns="http://www.w3.org/2000/svg">
<path d="M13.4859 6.46102L13.9859 6.46095C13.9858 5.8704 13.8106 5.29314 13.4825 4.80215C13.1544 4.31117 12.688 3.92851 12.1424 3.70257C11.5968 3.47663 10.9964 3.41755 10.4173 3.53281C9.83809 3.64807 9.30609 3.93249 8.88855 4.35011C8.47101 4.76772 8.18668 5.29977 8.0715 5.87897C7.95633 6.45818 8.01548 7.05853 8.24148 7.60412C8.46749 8.14971 8.85019 8.61603 9.34121 8.94411C9.83222 9.2722 10.4095 9.44731 11 9.44732L11.0006 9.44731C11.7922 9.44635 12.551 9.13145 13.1106 8.57171C13.6703 8.01197 13.985 7.25309 13.9859 6.46156L13.4859 6.46102ZM10.0127 7.44857C9.75075 7.18655 9.60339 6.83133 9.60295 6.46082C9.60306 6.1846 9.68503 5.9146 9.83853 5.68495C9.99207 5.45522 10.2103 5.27619 10.4656 5.17048C10.7209 5.06477 11.0017 5.03714 11.2727 5.09108C11.5437 5.14501 11.7926 5.27809 11.988 5.4735C12.1834 5.6689 12.3164 5.91785 12.3703 6.18887C12.4242 6.45989 12.3965 6.7408 12.2907 6.99608C12.185 7.25137 12.0059 7.46955 11.7762 7.62306C11.5465 7.77651 11.2766 7.85843 11.0004 7.8585C10.6299 7.85802 10.2747 7.7106 10.0127 7.44857Z" stroke="#495A75"/>
<path d="M7.35832 13.6193C5.82804 10.9416 5.02648 8.5307 5.03855 6.45901C5.03921 4.87846 5.66748 3.36283 6.78528 2.24537C7.90342 1.12756 9.41981 0.499732 11.0008 0.5C12.5819 0.500268 14.098 1.12861 15.2158 2.2468C16.3332 3.36462 16.961 4.88042 16.9611 6.46094C16.9732 8.53096 16.1716 10.9414 14.6413 13.6193H18.3055H18.3057C18.4666 13.6194 18.6236 13.6683 18.7561 13.7595C18.8886 13.8507 18.9902 13.98 19.0477 14.1303L19.0478 14.1306L21.4473 20.4216C21.4474 20.4216 21.4474 20.4217 21.4474 20.4218L21.4477 20.4224L20.9805 20.6006C20.9976 20.6452 21.0036 20.6933 20.9979 20.7407C20.9943 20.7714 20.9858 20.8012 20.973 20.8291L7.35832 13.6193ZM7.35832 13.6193H3.69412H3.69394C3.53308 13.6194 3.37604 13.6683 3.24356 13.7595C3.11108 13.8507 3.00942 13.98 2.95201 14.1303L2.9519 14.1306L0.552665 20.4216L7.35832 13.6193ZM19.5527 19.9112H17.8777L16.1583 17.677L18.3969 16.8808L19.5527 19.9112ZM9.45358 18.3756L7.01522 15.2073H8.333C8.96661 16.1792 9.65306 17.1158 10.3893 18.0127L10.3892 18.0127L10.3949 18.0194C10.3996 18.0249 10.4044 18.0303 10.4092 18.0357L9.45358 18.3756ZM17.8299 15.3964L12.0643 17.4471C12.6305 16.7242 13.1651 15.9771 13.6667 15.2078H17.758L17.8299 15.3964ZM5.0103 15.2073L7.87934 18.9354L5.13635 19.911H2.44767L4.24161 15.2073H5.0103ZM15.8722 19.9112H9.87758L14.5843 18.2377L15.8722 19.9112Z" stroke="#495A75"/>
</svg>
